<svg viewBox="0 0 1000 1000" xmlns="http://www.w3.org/2000/svg"><defs><linearGradient id="b"><stop offset="0%" stop-color="#66a19d"/><stop offset="100%" stop-color="#b2d0ce"/></linearGradient><clipPath id="a"><path fill="currentColor" d="M759.5 544.5Q622 589 635 772T516 906q-132-49-142-178t-35.5-178.5q-25.5-49.5-7-104T400 369q50-22 132-120t129.5.5Q709 348 803 424t-43.5 120.5Z"/></clipPath></defs><g clip-path="url(#a)"><path fill="url(#b)" d="M759.5 544.5Q622 589 635 772T516 906q-132-49-142-178t-35.5-178.5q-25.5-49.5-7-104T400 369q50-22 132-120t129.5.5Q709 348 803 424t-43.5 120.5Z"/></g></svg>